<svg width="32" height="32" viewBox="0 0 32 32" fill="none" xmlns="http://www.w3.org/2000/svg">
<rect width="32" height="32" rx="16" fill="black"/>
<path d="M27.8858 8.29413V12.0722C27.8858 12.2851 27.7104 12.4577 27.4942 12.4577H25.1446C24.9284 12.4577 24.753 12.2851 24.753 12.0722V9.06517C24.753 8.21351 24.0517 7.5231 23.1866 7.5231H8.77564C7.91053 7.5231 7.20923 8.21351 7.20923 9.06517V21.9831C7.20923 22.5711 7.54898 23.108 8.08518 23.3672L15.6359 27.0175C15.8536 27.1229 16.1086 27.1229 16.3263 27.0175L23.8771 23.3672C24.4132 23.108 24.753 22.5711 24.753 21.9831V17.0068C24.753 16.7939 24.9284 16.6213 25.1446 16.6213H27.4942C27.7104 16.6213 27.8858 16.7939 27.8858 17.0068V23.5736C27.8858 23.8514 27.7339 24.1078 27.4883 24.2447L17.9095 29.58C16.713 30.2465 15.2492 30.2465 14.0527 29.58L4.47394 24.2447C4.22829 24.1078 4.07642 23.8514 4.07642 23.5736V8.29413C4.07642 7.86831 4.42707 7.5231 4.85962 7.5231H6.11275C6.54529 7.5231 6.89595 7.17789 6.89595 6.75207V5.21C6.89595 4.78417 7.2466 4.43896 7.67915 4.43896H24.2831C24.7156 4.43896 25.0663 4.78417 25.0663 5.21V6.75207C25.0663 7.17789 25.4169 7.5231 25.8495 7.5231H27.1026C27.5352 7.5231 27.8858 7.86831 27.8858 8.29413Z" fill="url(#paint0_linear_171_56)"/>
<path d="M14.6075 16.5727C14.6075 17.4578 13.89 18.1753 13.0049 18.1753C12.1198 18.1753 11.4023 17.4578 11.4023 16.5727C11.4023 15.6877 12.1198 14.9702 13.0049 14.9702C13.89 14.9702 14.6075 15.6877 14.6075 16.5727Z" fill="white"/>
<path d="M21.4754 16.5727C21.4754 17.4578 20.7579 18.1753 19.8728 18.1753C18.9877 18.1753 18.2703 17.4578 18.2703 16.5727C18.2703 15.6877 18.9877 14.9702 19.8728 14.9702C20.7579 14.9702 21.4754 15.6877 21.4754 16.5727Z" fill="white"/>
<defs>
<linearGradient id="paint0_linear_171_56" x1="1.48348" y1="33.931" x2="-12.0784" y2="8.35271" gradientUnits="userSpaceOnUse">
<stop stop-color="#F8CF3E"/>
<stop offset="1" stop-color="#27F3D1"/>
</linearGradient>
</defs>
</svg>
